<svg xmlns="http://www.w3.org/2000/svg"
     viewBox="0 0 26 26"
     class="icon icon--twitter"
     fill="hsla( 155, 50%, 62%, 1 )">
  <title>Twitter icon</title>
  
  <path d="M 23.1909886,5.29558086
           C 24.2890548,4.60637309 25.1325326,3.51501799
           25.5295783,2.214512518
           C 24.501771,2.85282115 23.3635213,3.3161823
           22.1519047,3.56591554
           C 21.1817797,2.483517122 19.7994443,1.80734
           18.2695937,1.80734
           C 15.3322603,1.80734 12.9506347,4.30072345
           12.9506347,7.37622849
           C 12.9506347,7.8127164 12.9976886,8.23780388
           13.0884271,8.64538317
           C 8.66790709,8.41315971 4.74878349,6.19597281
           2.12540465,2.82662691
           C 1.6675643,3.64911353 1.40520012,4.60569568
           1.40520012,5.62634058
           C 1.40520012,7.55850561 2.3442143,9.26306245
           3.77139965,10.26171842
           C 2.89953349,10.23280978 2.07938767,9.98226302
           1.36229407,9.56518417
           C 1.36168942,9.5883918 1.36168942,9.61173554
           1.36168942,9.63521698
           C 1.36168942,12.3334094 3.19512628,14.5841186
           5.62834233,15.0960696
           C 5.18203872,15.2233784 4.71214314,15.2913758
           4.22707988,15.2913758
           C 3.88434849,15.2913758 3.55120988,15.2563594
           3.22636558,15.1914832
           C 3.90327407,17.4039187 5.86750302,19.0140117
           8.19507442,19.0587999
           C 6.37473128,20.5525777 4.08138163,21.4429272
           1.58931337,21.4429272
           C 1.15998988,21.4429272 0.736631279,21.4164607
           0.32053,21.3650203
           C 2.67441581,22.945255 5.47019733,23.8672275
           8.47390023,23.8672275
           C 18.2571923,23.8672275 23.6072622,15.3813622
           23.6072622,8.02186676
           C 23.6072622,7.78041439 23.6020773,7.54031842
           23.5918376,7.30130978
           C 24.6309215,6.51628173 25.532603,5.53553914
           26.2456787,4.41866878
           C 25.291973,4.86167122 24.2667583,5.16094245
           23.1909886,5.29558086
           Z" />
</svg>
