<svg xmlns="http://www.w3.org/2000/svg"
     viewBox="0 0 26 26"
     class="icon icon--youtube"
     fill="hsla( 155, 50%, 62%, 1 )">
  <title>Youtube icon</title>
  <path fill-rule="evenodd"
        d="M 24.7067326 1.36293723C23.7180479.32843333 22.6098311.32329678 22.1016163.26275173 18.4632963 0 13.0056253 0 13.0056253 0c-.0113015 0-5.46884523 0-9.10729254.26275174-.50824024.06054504-1.61604973.06568157-2.6050908 1.1001855C.5136874 2.15114157.26001273 3.94102177.26001273 3.94102177S0 6.04293396 0 8.14482072v9.70217058c0 2.1018614.26001273 4.2037481.26001273 4.2037481s.25367467 1.7899056 1.03322923 2.57811c.98904107 1.0345293 2.2882138 1.001803 2.86685986 1.1102297C6.24012727 25.9383361 13 26 13 26s5.4632963-.0082134 9.1016163-.2709397c.5082148-.0605705 1.6164316-.0656816 2.6051163-1.1002109.7796054-.7882044 1.0336365-2.57811 1.0336365-2.57811S26 19.9488527 26 17.8469913V8.14482072c0-2.10188676-.2596309-4.20379894-.2596309-4.20379894s-.2540311-1.7898802-1.0336365-2.57808455zM10.3090509 16.6506849l7.0215264-3.6379647-7.0215264-3.66340513v7.30136983 z" />
</svg>
